<?xml version="1.0" encoding="UTF-8"?>
<svg id="Layer_1" data-name="Layer 1" xmlns="http://www.w3.org/2000/svg" viewBox="0 0 473.06 314.26">
  <defs>
    <style>
      .cls-1 {
        fill: #e94f38;
      }

      .cls-1, .cls-2 {
        fill-rule: evenodd;
      }

      .cls-1, .cls-2, .cls-3 {
        stroke-width: 0px;
      }

      .cls-2 {
        fill: #f7a42a;
      }

      .cls-3 {
        fill: #fff;
      }
    </style>
  </defs>
  <rect class="cls-3" x="71.15" y="108.12" width="294.38" height="122.02" transform="translate(-46.07 89.36) rotate(-20.97)"/>
  <g>
    <path class="cls-2" d="M361.93,35.83l8.16,21.34c5.89-2.25,12.5.7,14.75,6.59l4.08,10.67c2.25,5.89-.7,12.5-6.59,14.75l8.16,21.34c5.89-2.25,12.5.7,14.75,6.59l4.08,10.67c2.25,5.89-.7,12.5-6.59,14.75l8.16,21.34c5.89-2.25,12.5.7,14.75,6.59l4.08,10.67,5.34-2.04c14.92-5.7,22.37-8.55,27.33-13.24,6.6-6.25,10.45-14.86,10.7-23.94.19-6.82-2.66-14.27-8.36-29.19l-3.06-8c-1.69-4.42-6.64-6.63-11.06-4.94l-2.67,1.02c-11.79,4.5-24.99-1.4-29.5-13.18-4.5-11.79,1.4-24.99,13.18-29.5l2.67-1.02c4.42-1.69,6.63-6.64,4.94-11.06l-3.06-8c-5.7-14.92-8.55-22.37-13.24-27.32-6.25-6.6-14.86-10.45-23.94-10.7-6.81-.19-14.27,2.66-29.19,8.36l-5.34,2.04,4.08,10.67c2.25,5.89-.7,12.5-6.59,14.75Z"/>
    <g>
      <path class="cls-1" d="M149.01,180.24c-2.31.88-3.91,2.48-4.8,4.81s-.72,5.13.54,8.41c1.28,3.34,2.99,5.59,5.15,6.75,2.16,1.16,4.42,1.28,6.78.38,2.36-.9,4-2.54,4.91-4.9.91-2.36.74-5.19-.51-8.47-1.26-3.28-3.01-5.49-5.25-6.61-2.25-1.12-4.52-1.24-6.82-.36Z"/>
      <path class="cls-1" d="M263.48,136.59c-2.54.97-4.3,2.65-5.3,5.05-1,2.4-.89,5.18.32,8.35,1.19,3.11,2.97,5.26,5.33,6.43,2.36,1.18,4.81,1.28,7.35.31,2.48-.95,4.23-2.64,5.24-5.07,1.02-2.43.92-5.24-.29-8.41-1.19-3.11-2.98-5.24-5.36-6.37-2.38-1.14-4.81-1.23-7.29-.28Z"/>
      <path class="cls-1" d="M204.71,159.05c-2.54.97-4.3,2.65-5.3,5.05-1,2.4-.89,5.18.32,8.35,1.19,3.11,2.97,5.26,5.33,6.43,2.36,1.18,4.81,1.28,7.35.31,2.48-.95,4.23-2.64,5.24-5.07,1.02-2.43.92-5.24-.29-8.41s-2.98-5.24-5.36-6.37c-2.38-1.14-4.81-1.23-7.29-.28Z"/>
      <path class="cls-1" d="M320.18,113.33c-2.07.79-3.56,2-4.46,3.63-.9,1.63-1.13,3.62-.69,5.96l14.95-5.72c-.79-2.07-2.11-3.44-3.94-4.09-1.83-.65-3.79-.58-5.86.21Z"/>
      <path class="cls-1" d="M370.08,57.17l-8.16-21.34c-5.89,2.25-12.5-.7-14.75-6.59l-4.08-10.67-69.36,26.51L38.04,135.16c-14.92,5.7-22.37,8.55-27.32,13.24C4.11,154.64.26,163.25,0,172.34c-.19,6.81,2.66,14.27,8.36,29.19l3.06,8c1.69,4.42,6.64,6.63,11.06,4.94l2.67-1.02c11.79-4.5,24.99,1.4,29.5,13.18,4.5,11.79-1.4,24.99-13.18,29.5l-2.67,1.02c-4.42,1.69-6.63,6.64-4.94,11.06l3.06,8c5.7,14.92,8.55,22.37,13.24,27.33,6.25,6.6,14.86,10.45,23.95,10.7,6.81.19,14.27-2.66,29.19-8.36l235.71-90.08,69.36-26.51-4.08-10.67c-2.25-5.89.7-12.5,6.59-14.75l-8.16-21.34c-5.89,2.25-12.5-.7-14.75-6.59l-4.08-10.67c-2.25-5.89.7-12.5,6.59-14.75l-8.16-21.34c-5.89,2.25-12.5-.7-14.75-6.59l-4.08-10.67c-2.25-5.89.7-12.5,6.59-14.75ZM132.94,225.8l-35.87,13.71-23.29-60.94,16.94-6.47,18.33,47.97,18.93-7.23,4.96,12.97ZM180,195.09c-.78,4.62-2.71,8.68-5.8,12.17-3.09,3.49-7.06,6.16-11.9,8.01-4.84,1.85-9.56,2.5-14.16,1.95-4.6-.55-8.71-2.28-12.34-5.19-3.62-2.91-6.4-6.9-8.34-11.97-1.92-5.01-2.48-9.82-1.69-14.41.79-4.59,2.71-8.63,5.77-12.11,3.06-3.48,7.01-6.15,11.85-8s9.56-2.5,14.16-1.95c4.6.55,8.73,2.28,12.38,5.18,3.65,2.9,6.43,6.85,8.35,11.87,1.92,5.01,2.49,9.83,1.71,14.45ZM243.58,183.52l-17.03,6.51-2.58-6.74c-.47,2.75-1.66,5.26-3.57,7.51-1.91,2.25-4.51,4-7.8,5.26-3.86,1.48-7.75,1.81-11.66.99-3.91-.82-7.5-2.76-10.75-5.85-3.26-3.08-5.85-7.13-7.76-12.14-1.92-5.01-2.68-9.74-2.3-14.18.38-4.44,1.77-8.27,4.17-11.5,2.4-3.23,5.53-5.58,9.39-7.06,3.11-1.19,6.14-1.6,9.08-1.24,2.94.36,5.54,1.4,7.78,3.12l-8.46-22.13,17.03-6.51,24.45,63.96ZM302.36,161.06l-17.03,6.51-2.58-6.74c-.47,2.75-1.66,5.26-3.57,7.51-1.91,2.25-4.51,4-7.8,5.26-3.86,1.48-7.75,1.81-11.66.99-3.91-.82-7.5-2.76-10.75-5.85-3.26-3.08-5.85-7.13-7.76-12.14s-2.68-9.74-2.3-14.18c.38-4.44,1.77-8.27,4.17-11.5,2.4-3.23,5.53-5.58,9.39-7.06,3.11-1.19,6.14-1.6,9.08-1.24,2.94.36,5.54,1.4,7.78,3.12l-8.46-22.13,17.03-6.51,24.45,63.96ZM350.15,118.92l-32.07,12.26c1.19,2.59,2.67,4.28,4.47,5.08s3.7.82,5.71.05c2.82-1.08,4.36-3.12,4.6-6.12l18.07-6.9c.53,3.63.21,7.17-.95,10.61-1.16,3.45-3.09,6.55-5.81,9.3-2.71,2.75-6.06,4.89-10.03,6.41-4.78,1.83-9.42,2.44-13.91,1.85-4.49-.6-8.5-2.36-12.03-5.31-3.54-2.94-6.27-6.95-8.21-12.02-1.94-5.07-2.58-9.86-1.93-14.37.65-4.51,2.45-8.48,5.4-11.92,2.95-3.44,6.84-6.08,11.68-7.93s9.39-2.47,13.83-1.92c4.44.55,8.39,2.26,11.86,5.12,3.47,2.87,6.16,6.78,8.05,11.73.51,1.33.93,2.68,1.26,4.08Z"/>
    </g>
  </g>
</svg>