<svg width="998" height="998" viewBox="0 0 998 998" fill="none" xmlns="http://www.w3.org/2000/svg">
<g clip-path="url(#clip0_157_21)">
<mask id="mask0_157_21" style="mask-type:luminance" maskUnits="userSpaceOnUse" x="0" y="0" width="998" height="998">
<path d="M998 499C998 223.41 774.59 0 499 0C223.41 0 0 223.41 0 499C0 774.59 223.41 998 499 998C774.59 998 998 774.59 998 499Z" fill="white"/>
</mask>
<g mask="url(#mask0_157_21)">
<path d="M998 499C998 223.41 774.59 0 499 0C223.41 0 0 223.41 0 499C0 774.59 223.41 998 499 998C774.59 998 998 774.59 998 499Z" fill="#8338EC"/>
<path d="M77.6694 919.799L919.798 77.6695" stroke="white" stroke-width="1000"/>
<path d="M523.287 356.452C512.893 359.654 507.696 365.858 507.696 375.066V378.07C507.696 380.071 507.896 381.272 508.295 381.672C512.693 381.272 518.49 381.071 525.688 381.071H540.08C585.658 381.071 628.238 388.077 667.817 402.089C707.798 415.701 740.382 437.718 765.57 468.143C793.557 502.572 807.55 546.007 807.55 598.45C807.55 680.117 779.365 741.767 722.99 783.4C666.618 825.036 591.255 845.853 496.901 845.853C402.546 845.853 328.583 830.239 275.009 799.014C221.835 767.789 195.247 721.951 195.247 661.501C195.247 639.083 200.045 618.666 209.641 600.251C219.236 581.436 230.031 568.225 242.025 560.618C264.015 579.034 295.799 595.047 337.378 608.659C379.358 621.869 423.737 628.474 470.514 628.474C489.304 628.474 498.7 623.27 498.7 612.862C498.7 608.058 498.101 604.054 496.901 600.851C494.102 601.251 490.704 601.452 486.706 601.452H480.109C395.351 601.452 327.583 584.638 276.808 551.011C219.236 512.979 190.45 459.335 190.45 390.079C190.45 320.822 216.237 264.776 267.812 221.941C324.984 174.702 403.546 151.083 503.497 151.083C552.674 151.083 598.451 156.287 640.831 166.696C683.61 177.105 720.192 190.916 750.578 208.13C758.174 224.544 761.972 248.764 761.972 280.789C761.972 329.63 748.578 367.061 721.792 393.082C701.402 381.872 676.414 372.665 646.827 365.46C617.642 357.853 591.256 354.05 567.666 354.05C544.078 354.05 529.285 354.85 523.287 356.452Z" fill="white"/>
<path d="M474.713 640.484C485.107 637.282 490.304 631.077 490.304 621.87V618.866C490.304 616.865 490.104 615.664 489.705 615.264C485.307 615.664 479.51 615.864 472.313 615.864H457.92C412.342 615.864 369.762 608.858 330.183 594.847C290.202 581.235 257.618 559.218 232.43 528.793C204.443 494.364 190.45 450.929 190.45 398.486C190.45 316.819 218.637 255.169 275.01 213.535C331.382 171.9 406.745 151.083 501.099 151.083C595.454 151.083 669.418 166.697 722.992 197.922C776.165 229.147 802.753 274.985 802.753 335.435C802.753 357.853 797.955 378.27 788.359 396.685C778.765 415.5 767.97 428.711 755.976 436.318C733.987 417.902 702.202 401.889 660.622 388.277C618.642 375.067 574.263 368.462 527.486 368.462C508.696 368.462 499.3 373.666 499.3 384.074C499.3 388.878 499.899 392.882 501.099 396.085C503.899 395.685 507.296 395.484 511.294 395.484H517.892C602.65 395.484 670.417 412.298 721.192 445.925C778.765 483.957 807.55 537.601 807.55 606.857C807.55 676.114 781.763 732.16 730.188 774.995C673.016 822.234 594.454 845.853 494.503 845.853C445.326 845.853 399.549 840.649 357.169 830.24C314.39 819.831 277.808 806.02 247.422 788.806C239.826 772.392 236.028 748.172 236.028 716.147C236.028 667.306 249.422 629.875 276.208 603.854C296.599 615.064 321.586 624.271 351.173 631.477C380.358 639.083 406.745 642.887 430.334 642.887C453.922 642.887 468.715 642.086 474.713 640.484Z" fill="white"/>
<path d="M521.277 368.196C511.743 371.134 506.976 376.825 506.976 385.272V388.026C506.976 389.862 507.16 390.964 507.526 391.33C511.56 390.964 516.877 390.78 523.479 390.78H536.679C578.487 390.78 617.542 397.206 653.846 410.059C690.518 422.544 720.406 442.742 743.509 470.651C769.18 502.232 782.015 542.076 782.015 590.182C782.015 665.095 756.162 721.648 704.454 759.838C652.747 798.03 583.62 817.126 497.074 817.126C410.529 817.126 342.686 802.804 293.546 774.161C244.773 745.517 220.386 703.47 220.386 648.019C220.386 627.455 224.786 608.727 233.587 591.834C242.388 574.575 252.29 562.456 263.292 555.48C283.461 572.371 312.616 587.06 350.753 599.546C389.259 611.664 429.966 617.724 472.871 617.724C490.106 617.724 498.724 612.95 498.724 603.403C498.724 598.995 498.175 595.323 497.074 592.385C494.507 592.751 491.391 592.935 487.723 592.935H481.672C403.928 592.935 341.769 577.512 295.196 546.667C242.388 511.779 215.985 462.572 215.985 399.041C215.985 335.512 239.638 284.101 286.945 244.809C339.386 201.477 411.446 179.81 503.125 179.81C548.232 179.81 590.22 184.584 629.093 194.132C668.331 203.679 701.887 216.349 729.757 232.139C736.725 247.195 740.209 269.412 740.209 298.79C740.209 343.592 727.923 377.927 703.354 401.797C684.651 391.514 661.732 383.068 634.594 376.459C607.824 369.481 583.62 365.992 561.984 365.992C540.348 365.992 526.778 366.727 521.277 368.196Z" fill="#763CE1"/>
</g>
</g>
<defs>
<clipPath id="clip0_157_21">
<rect width="998" height="998" fill="white"/>
</clipPath>
</defs>
</svg>
