<?xml version="1.0" encoding="UTF-8"?>
<svg id="Layer_1" data-name="Layer 1" xmlns="http://www.w3.org/2000/svg" viewBox="0 0 356.33 142.21">
  <defs>
    <style>
      .cls-1 {
        fill: #e94f38;
      }

      .cls-1, .cls-2 {
        fill-rule: evenodd;
      }

      .cls-1, .cls-2, .cls-3 {
        stroke-width: 0px;
      }

      .cls-2 {
        fill: #f7a42a;
      }

      .cls-3 {
        fill: #fff;
      }
    </style>
  </defs>
  <rect class="cls-3" x="35.36" y="11.04" width="247.43" height="122.02"/>
  <path class="cls-2" d="M303,17.78v17.78c4.91,0,8.89,3.98,8.89,8.89v8.89c0,4.91-3.98,8.89-8.89,8.89v17.78c4.91,0,8.89,3.98,8.89,8.89v8.89c0,4.91-3.98,8.89-8.89,8.89v17.78c4.91,0,8.89,3.98,8.89,8.89v8.89h4.44c12.42,0,18.64,0,23.54-2.03,6.53-2.71,11.72-7.9,14.43-14.43,2.03-4.9,2.03-11.11,2.03-23.54v-6.67c0-3.68-2.98-6.67-6.67-6.67h-2.22c-9.82,0-17.78-7.96-17.78-17.78s7.96-17.78,17.78-17.78h2.22c3.68,0,6.67-2.98,6.67-6.67v-6.67c0-12.42,0-18.64-2.03-23.54-2.71-6.53-7.9-11.72-14.43-14.43C334.97,0,328.75,0,316.33,0h-4.44v8.89c0,4.91-3.98,8.89-8.89,8.89Z"/>
  <g>
    <path class="cls-1" d="M108.13,63.59c-1.92,0-3.53.72-4.82,2.16s-1.94,3.53-1.94,6.26.62,4.9,1.87,6.34c1.25,1.44,2.86,2.16,4.82,2.16s3.61-.73,4.93-2.2c1.32-1.46,1.98-3.56,1.98-6.3s-.66-4.82-1.98-6.26c-1.32-1.44-2.94-2.16-4.86-2.16Z"/>
    <path class="cls-1" d="M203.46,63.66c-2.11,0-3.86.73-5.26,2.2-1.39,1.46-2.09,3.52-2.09,6.16s.7,4.64,2.09,6.16c1.39,1.51,3.14,2.27,5.26,2.27s3.8-.74,5.22-2.23c1.42-1.49,2.12-3.55,2.12-6.19s-.71-4.63-2.12-6.12c-1.42-1.49-3.16-2.23-5.22-2.23Z"/>
    <path class="cls-1" d="M154.5,63.66c-2.11,0-3.86.73-5.26,2.2-1.39,1.46-2.09,3.52-2.09,6.16s.7,4.64,2.09,6.16c1.39,1.51,3.14,2.27,5.26,2.27s3.8-.74,5.22-2.23c1.42-1.49,2.12-3.55,2.12-6.19s-.71-4.63-2.12-6.12c-1.42-1.49-3.16-2.23-5.22-2.23Z"/>
    <path class="cls-1" d="M251.12,62.51c-1.73,0-3.14.47-4.25,1.4-1.1.94-1.82,2.32-2.16,4.14h12.46c0-1.73-.58-3.08-1.73-4.07-1.15-.98-2.59-1.48-4.32-1.48Z"/>
    <path class="cls-1" d="M303,35.55v-17.78c-4.91,0-8.89-3.98-8.89-8.89V0H40c-12.42,0-18.64,0-23.54,2.03-6.53,2.71-11.72,7.9-14.43,14.43C0,21.36,0,27.57,0,40v6.67c0,3.68,2.98,6.67,6.67,6.67h2.22c9.82,0,17.78,7.96,17.78,17.78s-7.96,17.78-17.78,17.78h-2.22c-3.68,0-6.67,2.98-6.67,6.67v6.67c0,12.42,0,18.64,2.03,23.54,2.71,6.53,7.9,11.72,14.43,14.43,4.9,2.03,11.11,2.03,23.54,2.03h254.11v-8.89c0-4.91,3.98-8.89,8.89-8.89v-17.78c-4.91,0-8.89-3.98-8.89-8.89v-8.89c0-4.91,3.98-8.89,8.89-8.89v-17.78c-4.91,0-8.89-3.98-8.89-8.89v-8.89c0-4.91,3.98-8.89,8.89-8.89ZM83.8,92.25h-29.88v-50.76h14.11v39.96h15.77v10.8ZM126.53,82.99c-1.85,3.14-4.38,5.56-7.6,7.24-3.22,1.68-6.84,2.52-10.87,2.52s-7.64-.84-10.84-2.52c-3.19-1.68-5.7-4.08-7.52-7.2-1.82-3.12-2.74-6.79-2.74-11.02s.92-7.82,2.77-10.94c1.85-3.12,4.37-5.52,7.56-7.2,3.19-1.68,6.8-2.52,10.84-2.52s7.64.84,10.84,2.52c3.19,1.68,5.71,4.08,7.56,7.2,1.85,3.12,2.77,6.77,2.77,10.94s-.92,7.84-2.77,10.98ZM175.96,92.25h-14.18v-5.62c-1.1,1.87-2.66,3.36-4.68,4.46-2.02,1.1-4.39,1.66-7.13,1.66-3.22,0-6.13-.84-8.75-2.52-2.62-1.68-4.68-4.09-6.19-7.24-1.51-3.14-2.27-6.8-2.27-10.98s.76-7.82,2.27-10.94c1.51-3.12,3.59-5.52,6.23-7.2,2.64-1.68,5.57-2.52,8.78-2.52,2.59,0,4.91.54,6.95,1.62,2.04,1.08,3.64,2.56,4.79,4.43v-18.43h14.18v53.28ZM224.92,92.25h-14.18v-5.62c-1.1,1.87-2.66,3.36-4.68,4.46-2.02,1.1-4.39,1.66-7.13,1.66-3.22,0-6.13-.84-8.75-2.52-2.62-1.68-4.68-4.09-6.19-7.24-1.51-3.14-2.27-6.8-2.27-10.98s.76-7.82,2.27-10.94c1.51-3.12,3.59-5.52,6.23-7.2,2.64-1.68,5.57-2.52,8.78-2.52,2.59,0,4.91.54,6.95,1.62,2.04,1.08,3.64,2.56,4.79,4.43v-18.43h14.18v53.28ZM271.36,74.89h-26.71c.14,2.21.76,3.85,1.84,4.93s2.46,1.62,4.14,1.62c2.35,0,4.03-1.06,5.04-3.17h15.05c-.62,2.78-1.84,5.27-3.64,7.45-1.8,2.19-4.07,3.9-6.8,5.15-2.74,1.25-5.76,1.87-9.07,1.87-3.98,0-7.52-.84-10.62-2.52-3.1-1.68-5.52-4.08-7.27-7.2-1.75-3.12-2.63-6.79-2.63-11.02s.86-7.88,2.59-10.98c1.73-3.1,4.14-5.48,7.24-7.16,3.1-1.68,6.66-2.52,10.69-2.52s7.51.82,10.58,2.45c3.07,1.63,5.47,3.97,7.2,7.02,1.73,3.05,2.59,6.64,2.59,10.76,0,1.1-.07,2.21-.22,3.31Z"/>
  </g>
</svg>